<svg xmlns="http://www.w3.org/2000/svg" viewBox="0 0 256 296" enable-background="new 0 0 256 296"><path fill="#FFFFFF" d="M230.8,181.3c0-6.9,5.6-12.6,12.6-12.6c6.9,0,12.6,5.7,12.6,12.6v33.3c0,4.6-2.5,8.7-6.3,10.9l-115.4,66.6c-4.1,2.4-9,2.2-12.8-0.1l-28.7-16.6c-6-3.5-8.1-11.2-4.6-17.2c3.5-6,11.2-8.1,17.2-4.6l22.5,13l102.8-59.4L230.8,181.3L230.8,181.3L230.8,181.3z M136.7,153.1v61.9c0,4.9-3.9,8.8-8.8,8.8c-4.9,0-8.8-3.9-8.8-8.8v-61.9l-53-30.6c-4.2-2.4-5.7-7.8-3.2-12.1c2.4-4.2,7.8-5.7,12.1-3.2l53,30.6l53.8-31c4.2-2.4,9.6-1,12,3.3c2.4,4.2,1,9.6-3.3,12L136.7,153.1L136.7,153.1z M25.2,114.7c0,6.9-5.7,12.6-12.6,12.6c-6.9,0-12.6-5.7-12.6-12.6V81.4c0-4.6,2.5-8.7,6.3-10.9L121.6,3.8c4.1-2.4,9-2.1,12.8,0.1l28.7,16.6c6,3.5,8.1,11.2,4.6,17.2c-3.5,6-11.2,8.1-17.2,4.6l-22.5-13L25.2,88.7V114.7z"/><path fill="#FF961F" d="M76.6,237.6c6,3.5,8.1,11.1,4.6,17.1c-3.5,6-11.1,8.1-17.1,4.6L6.3,225.9c-4-2.3-6.3-6.5-6.3-10.9V149c0-7,5.6-12.6,12.5-12.6c7,0,12.6,5.6,12.6,12.6v58.9L76.6,237.6L76.6,237.6z M179.7,60.1c-6-3.5-8-11.2-4.6-17.2c3.5-6,11.2-8,17.2-4.6l57.4,33.2c4,2.3,6.3,6.5,6.3,10.9v66.3c0,7-5.6,12.6-12.6,12.6s-12.6-5.6-12.6-12.6V89.6L179.7,60.1L179.7,60.1z"/></svg>